<?xml version="1.0" standalone="no"?>
<!DOCTYPE svg PUBLIC "-//W3C//DTD SVG 20010904//EN"
 "http://www.w3.org/TR/2001/REC-SVG-20010904/DTD/svg10.dtd">
<svg version="1.0" xmlns="http://www.w3.org/2000/svg"
 width="512.000000pt" height="512.000000pt" viewBox="0 0 512.000000 512.000000"
 preserveAspectRatio="xMidYMid meet">

<g transform="translate(0.000000,512.000000) scale(0.100000,-0.100000)"
fill="#000000" stroke="none">
<path d="M970 3866 l0 -53 118 -5 c142 -6 182 -21 221 -85 14 -24 292 -620
617 -1326 l590 -1282 79 0 79 0 581 1281 c320 705 594 1302 608 1327 35 60 76
77 193 84 l94 6 0 53 0 54 -440 0 -440 0 0 -54 0 -53 103 -7 c122 -8 168 -19
204 -51 25 -21 28 -30 27 -82 0 -34 -11 -88 -26 -133 -27 -77 -663 -1519 -676
-1532 -6 -6 -598 1306 -689 1529 -82 201 -48 259 157 270 l110 6 0 53 0 54
-755 0 -755 0 0 -54z"/>
</g>
</svg>
